<mxfile host="app.diagrams.net" agent="Mozilla/5.0 (Windows NT 10.0; Win64; x64) AppleWebKit/537.36 (KHTML, like Gecko) Chrome/128.0.0.0 Safari/537.36 Edg/128.0.0.0" version="27.1.4">
  <diagram name="第 1 页" id="NM45Fy-Pm7l9fKpPG5w4">
    <mxGraphModel dx="473" dy="272" grid="0" gridSize="10" guides="1" tooltips="1" connect="1" arrows="1" fold="1" page="1" pageScale="1" pageWidth="900" pageHeight="1600" math="0" shadow="0">
      <root>
        <mxCell id="0" />
        <mxCell id="1" parent="0" />
        <mxCell id="Wi9fWY7tMc1d5rnaZym0-1" value="环氧树脂" style="shape=cylinder3;whiteSpace=wrap;html=1;boundedLbl=1;backgroundOutline=1;size=6.2285853794642705;fillColor=#dae8fc;strokeColor=#6c8ebf;" vertex="1" parent="1">
          <mxGeometry x="24" y="4" width="37" height="67" as="geometry" />
        </mxCell>
        <mxCell id="Wi9fWY7tMc1d5rnaZym0-13" value="填料" style="shape=cylinder3;whiteSpace=wrap;html=1;boundedLbl=1;backgroundOutline=1;size=6.2285853794642705;" vertex="1" parent="1">
          <mxGeometry x="70" y="4" width="37" height="67" as="geometry" />
        </mxCell>
        <mxCell id="Wi9fWY7tMc1d5rnaZym0-14" value="溶剂" style="shape=cylinder3;whiteSpace=wrap;html=1;boundedLbl=1;backgroundOutline=1;size=6.2285853794642705;fillColor=#f5f5f5;strokeColor=#666666;fontColor=#333333;" vertex="1" parent="1">
          <mxGeometry x="115" y="4" width="37" height="67" as="geometry" />
        </mxCell>
        <mxCell id="Wi9fWY7tMc1d5rnaZym0-15" value="催化剂" style="shape=cylinder3;whiteSpace=wrap;html=1;boundedLbl=1;backgroundOutline=1;size=6.2285853794642705;fillColor=#fff2cc;strokeColor=#d6b656;" vertex="1" parent="1">
          <mxGeometry x="158" y="4" width="37" height="67" as="geometry" />
        </mxCell>
        <mxCell id="Wi9fWY7tMc1d5rnaZym0-16" value="" style="strokeWidth=2;html=1;shape=mxgraph.flowchart.terminator;whiteSpace=wrap;direction=south;fillColor=#bac8d3;strokeColor=#23445d;" vertex="1" parent="1">
          <mxGeometry x="61.75" y="113" width="97" height="148" as="geometry" />
        </mxCell>
        <mxCell id="Wi9fWY7tMc1d5rnaZym0-17" value="" style="line;strokeWidth=2;direction=south;html=1;" vertex="1" parent="1">
          <mxGeometry x="105.25" y="95" width="10" height="124" as="geometry" />
        </mxCell>
        <mxCell id="Wi9fWY7tMc1d5rnaZym0-20" value="" style="verticalLabelPosition=bottom;verticalAlign=top;html=1;shape=mxgraph.flowchart.collate;direction=south;strokeWidth=2;" vertex="1" parent="1">
          <mxGeometry x="74.75" y="207" width="71" height="21" as="geometry" />
        </mxCell>
        <mxCell id="Wi9fWY7tMc1d5rnaZym0-23" value="" style="shape=curlyBracket;whiteSpace=wrap;html=1;rounded=1;labelPosition=left;verticalLabelPosition=middle;align=right;verticalAlign=middle;direction=north;strokeWidth=2;" vertex="1" parent="1">
          <mxGeometry x="36.5" y="78" width="147.5" height="20" as="geometry" />
        </mxCell>
      </root>
    </mxGraphModel>
  </diagram>
</mxfile>
